# Blender v2.90.0 OBJ File: 'Scientist.blend'
# www.blender.org
mtllib DoorFront.mtl
o DoorFront_Cube.031
v -76.620392 -4.189797 86.865608
v -76.669159 21.910057 86.865608
v -76.620392 -4.189797 81.690895
v -76.669159 21.910057 81.690903
v -63.686836 -4.189797 86.865608
v -69.294708 21.910057 86.865608
v -63.686836 -4.189797 81.690895
v -69.294708 21.910057 81.690903
v -76.633812 1.124139 86.865608
v -76.633812 1.124139 81.690895
v -65.230240 2.993429 81.690895
v -65.230240 2.993429 86.865608
v -76.651482 14.199123 86.865608
v -76.651482 14.199123 81.690895
v -67.262474 12.451744 81.690895
v -67.262474 12.451744 86.865608
v -74.956161 11.313195 81.690895
v -67.017838 11.313195 81.690895
v -67.017838 11.313195 86.865608
v -74.956161 11.313195 86.865608
v -74.908676 4.022750 81.690895
v -65.451401 4.022749 81.690895
v -65.451401 4.022749 86.865608
v -74.908676 4.022750 86.865608
v -78.637901 -4.189796 86.865601
v -78.623001 21.910057 86.865608
v -78.637901 -4.189796 81.690895
v -78.623001 21.910057 81.690903
v -91.571449 -4.189796 86.865601
v -85.963585 21.910057 86.865608
v -91.571449 -4.189796 81.690895
v -85.963585 21.910057 81.690903
v -78.624474 1.124140 86.865608
v -78.624474 1.124140 81.690895
v -90.028046 2.993429 81.690895
v -90.028046 2.993429 86.865608
v -78.640671 14.199122 86.865608
v -78.640671 14.199122 81.690895
v -87.995819 12.451743 81.690895
v -87.995819 12.451743 86.865608
v -76.892220 11.313194 81.690895
v -88.240448 11.313194 81.690895
v -88.240448 11.313194 86.865608
v -76.892220 11.313194 86.865608
v -76.887444 4.022750 81.690895
v -89.806885 4.022750 81.690895
v -89.806885 4.022750 86.865608
v -76.887444 4.022750 86.865608
vt 0.703501 0.298909
vt 0.703501 0.412456
vt 0.548234 0.412456
vt 0.548234 0.298909
vt 0.357203 0.285452
vt 0.357270 0.399000
vt 0.248678 0.398815
vt 0.218990 0.259486
vt 0.011263 0.265392
vt 0.011263 0.122935
vt 0.166530 0.122935
vt 0.166530 0.265392
vt 0.409730 0.153856
vt 0.439419 0.014528
vt 0.548011 0.014343
vt 0.547943 0.127890
vt 0.011263 0.706491
vt 0.011263 0.516039
vt 0.166530 0.516039
vt 0.166530 0.706491
vt 0.011263 0.014343
vt 0.166530 0.014343
vt 0.357494 0.399000
vt 0.380041 0.293185
vt 0.548011 0.320426
vt 0.547946 0.398676
vt 0.011263 0.407848
vt 0.166530 0.407848
vt 0.357206 0.014667
vt 0.357270 0.092917
vt 0.189301 0.120158
vt 0.166753 0.014343
vt 0.703501 0.014343
vt 0.703501 0.092593
vt 0.548234 0.092594
vt 0.548234 0.014343
vt 0.406156 0.170628
vt 0.523051 0.170429
vt 0.011263 0.282540
vt 0.166530 0.282540
vt 0.332311 0.242913
vt 0.215416 0.242715
vt 0.703501 0.249622
vt 0.548234 0.249622
vt 0.703501 0.142264
vt 0.548234 0.142264
vt 0.331794 0.135557
vt 0.192532 0.135321
vt 0.011263 0.392345
vt 0.166530 0.392345
vt 0.383272 0.278022
vt 0.522535 0.277786
vt 0.266977 0.677055
vt 0.266840 0.561348
vt 0.425060 0.561160
vt 0.425197 0.676867
vt 0.482967 0.656952
vt 0.506694 0.543704
vt 0.614450 0.566538
vt 0.614861 0.711704
vt 0.963774 0.711388
vt 0.963946 0.856554
vt 0.805726 0.856741
vt 0.805554 0.711575
vt 0.805007 0.798764
vt 0.804940 0.943930
vt 0.697238 0.967020
vt 0.673243 0.853828
vt 0.963240 0.261899
vt 0.963470 0.455973
vt 0.805251 0.456161
vt 0.805020 0.262087
vt 0.964077 0.966703
vt 0.805857 0.966891
vt 0.805123 0.543350
vt 0.805073 0.653598
vt 0.631878 0.662041
vt 0.615360 0.584032
vt 0.963601 0.566221
vt 0.805382 0.566409
vt 0.425725 0.926885
vt 0.442058 0.848837
vt 0.615272 0.856869
vt 0.615584 0.967117
vt 0.267322 0.967530
vt 0.267227 0.887792
vt 0.425447 0.887604
vt 0.425542 0.967342
vt 0.805015 0.781289
vt 0.638512 0.816985
vt 0.963753 0.693913
vt 0.805533 0.694101
vt 0.448323 0.693878
vt 0.614910 0.729178
vt 0.267037 0.727687
vt 0.425257 0.727500
vt 0.267167 0.837084
vt 0.425387 0.836897
vt 0.425575 0.800883
vt 0.615227 0.841071
vt 0.963620 0.582019
vt 0.805400 0.582207
vt 0.805066 0.669396
vt 0.615510 0.710034
vn -1.0000 -0.0023 0.0000
vn 0.0000 0.0000 -1.0000
vn 0.9777 0.2101 0.0000
vn 0.0000 0.0000 1.0000
vn 0.0000 -1.0000 0.0000
vn 0.0000 1.0000 0.0000
vn -1.0000 -0.0025 0.0000
vn -0.8622 -0.5065 0.0000
vn -1.0000 -0.0065 0.0000
vn -0.8593 0.5114 0.0000
vn -1.0000 0.0023 0.0000
vn 0.9777 -0.2101 0.0000
vn -1.0000 0.0025 0.0000
vn -0.8553 -0.5182 0.0000
vn -1.0000 -0.0007 0.0000
vn -0.8578 0.5140 0.0000
usemtl None
s off
f 13/1/1 2/2/1 4/3/1 14/4/1
f 14/5/2 4/6/2 8/7/2 15/8/2
f 15/9/3 8/10/3 6/11/3 16/12/3
f 16/13/4 6/14/4 2/15/4 13/16/4
f 3/17/5 7/18/5 5/19/5 1/20/5
f 8/10/6 4/21/6 2/22/6 6/11/6
f 5/23/4 12/24/4 9/25/4 1/26/4
f 7/18/3 11/27/3 12/28/3 5/19/3
f 3/29/2 10/30/2 11/31/2 7/32/2
f 1/33/7 9/34/7 10/35/7 3/36/7
f 19/37/4 16/13/4 13/16/4 20/38/4
f 18/39/3 15/9/3 16/12/3 19/40/3
f 17/41/2 14/5/2 15/8/2 18/42/2
f 20/43/8 13/1/8 14/4/8 17/44/8
f 24/45/9 20/43/9 17/44/9 21/46/9
f 21/47/2 17/41/2 18/42/2 22/48/2
f 22/49/3 18/39/3 19/40/3 23/50/3
f 23/51/4 19/37/4 20/38/4 24/52/4
f 12/24/4 23/51/4 24/52/4 9/25/4
f 11/27/3 22/49/3 23/50/3 12/28/3
f 10/30/2 21/47/2 22/48/2 11/31/2
f 9/34/10 24/45/10 21/46/10 10/35/10
f 37/53/11 26/54/11 28/55/11 38/56/11
f 38/57/4 28/58/4 32/59/4 39/60/4
f 39/61/12 32/62/12 30/63/12 40/64/12
f 40/65/2 30/66/2 26/67/2 37/68/2
f 27/69/6 31/70/6 29/71/6 25/72/6
f 32/62/5 28/73/5 26/74/5 30/63/5
f 29/75/2 36/76/2 33/77/2 25/78/2
f 31/70/12 35/79/12 36/80/12 29/71/12
f 27/81/4 34/82/4 35/83/4 31/84/4
f 25/85/13 33/86/13 34/87/13 27/88/13
f 43/89/2 40/65/2 37/68/2 44/90/2
f 42/91/12 39/61/12 40/64/12 43/92/12
f 41/93/4 38/57/4 39/60/4 42/94/4
f 44/95/14 37/53/14 38/56/14 41/96/14
f 48/97/15 44/95/15 41/96/15 45/98/15
f 45/99/4 41/93/4 42/94/4 46/100/4
f 46/101/12 42/91/12 43/92/12 47/102/12
f 47/103/2 43/89/2 44/90/2 48/104/2
f 36/76/2 47/103/2 48/104/2 33/77/2
f 35/79/12 46/101/12 47/102/12 36/80/12
f 34/82/4 45/99/4 46/100/4 35/83/4
f 33/86/16 48/97/16 45/98/16 34/87/16
