# Blender v2.90.0 OBJ File: 'Scientist.blend'
# www.blender.org
mtllib Servers.mtl
o Serveurs_Cube
v -5.731541 -12.901866 4.271051
v -5.731541 -12.901866 -6.426989
v 18.340109 -12.901866 4.271051
v 18.340109 -12.901866 -6.426989
v -4.086053 9.755716 4.271051
v -5.731541 8.206883 4.271051
v -5.731541 8.206883 -6.426989
v -4.086053 9.755716 -6.426989
v 18.340109 8.305161 4.271051
v 16.799015 9.755716 4.271051
v 16.799015 9.755716 -6.426989
v 18.340109 8.305161 -6.426989
v 3.892495 9.755716 4.271051
v 3.892495 9.755716 -6.426989
v -3.676578 8.635716 -2.829576
v -3.676578 10.635716 -2.829576
v -3.676578 8.635716 -4.829576
v -3.676578 10.635716 -4.829576
v 16.285133 8.635716 -2.829576
v 16.285133 10.635716 -2.829576
v 16.285133 8.635716 -4.829576
v 16.285133 10.635716 -4.829576
v -3.676578 3.565655 4.949489
v -3.676578 5.565655 4.949489
v -3.676578 3.565655 2.949488
v -3.676578 5.565655 2.949488
v 16.285133 3.565655 4.949489
v 16.285133 5.565655 4.949489
v 16.285133 3.565655 2.949488
v 16.285133 5.565655 2.949488
v -3.676578 0.285030 4.949489
v -3.676578 2.285030 4.949489
v -3.676578 0.285030 2.949488
v -3.676578 2.285030 2.949488
v 16.285133 0.285030 4.949489
v 16.285133 2.285030 4.949489
v 16.285133 0.285030 2.949488
v 16.285133 2.285030 2.949488
v -3.676578 -3.208622 4.949489
v -3.676578 -1.208622 4.949489
v -3.676578 -3.208622 2.949488
v -3.676578 -1.208622 2.949488
v 16.285133 -3.208622 4.949489
v 16.285133 -1.208622 4.949489
v 16.285133 -3.208622 2.949488
v 16.285133 -1.208622 2.949488
v -3.676578 -6.830097 4.949489
v -3.676578 -4.830097 4.949489
v -3.676578 -6.830097 2.949488
v -3.676578 -4.830097 2.949488
v 16.285133 -6.830097 4.949489
v 16.285133 -4.830097 4.949489
v 16.285133 -6.830097 2.949488
v 16.285133 -4.830097 2.949488
v -3.676578 -10.536777 4.949489
v -3.676578 -8.536777 4.949489
v -3.676578 -10.536777 2.949488
v -3.676578 -8.536777 2.949488
v 16.285133 -10.536777 4.949489
v 16.285133 -8.536777 4.949489
v 16.285133 -10.536777 2.949488
v 16.285133 -8.536777 2.949488
v -5.731541 -2.347491 4.271051
v -5.731541 -2.347491 -6.426989
v -5.731541 2.929697 4.271051
v -5.731541 2.929697 -6.426989
v -5.731541 -7.624678 4.271051
v -5.731541 -7.624678 -6.426989
v -5.731541 -4.986084 4.271051
v -5.731541 -4.986084 -6.426989
v -5.731541 0.291102 4.271051
v -5.731541 0.291102 -6.426989
v -5.731541 5.568290 4.271051
v -5.731541 5.568290 -6.426989
v -5.731541 -10.263272 4.271051
v -5.731541 -10.263272 -6.426989
v -5.731541 -12.901866 -5.763544
v 18.340109 -12.901866 -5.763544
v -4.086053 9.755716 -5.763544
v -5.731541 8.206883 -5.763544
v 16.799015 9.755716 -5.763544
v 18.340109 8.305161 -5.763544
v 3.892495 9.755716 -5.763544
v -5.731541 -2.347491 -5.763544
v -5.731541 2.929697 -5.763544
v -5.731541 -7.624678 -5.763544
v -5.731541 -4.986084 -5.763544
v -5.731541 0.291102 -5.763544
v -5.731541 5.568290 -5.763544
v -5.731541 -10.263272 -5.763544
v -5.731541 -12.901866 3.773468
v -5.731541 8.206883 3.773468
v 16.799015 9.755716 3.773468
v 3.892495 9.755716 3.773468
v 18.340109 -12.901866 3.773468
v -4.086053 9.755716 3.773468
v 18.340109 8.305161 3.773468
v -5.731541 -2.347491 3.773468
v -5.731541 2.929697 3.773468
v -5.731541 -7.624678 3.773468
v -5.731541 -4.986084 3.773468
v -5.731541 0.291102 3.773468
v -5.731541 5.568290 3.773468
v -5.731541 -10.263272 3.773468
v -5.731541 -2.347491 3.773468
v -5.731541 -2.347491 -5.763544
v -5.731541 0.291102 3.773468
v -5.731541 0.291102 -5.763544
v -5.731541 -1.979759 4.271051
v -5.731541 -1.979759 -6.426989
v -5.731541 -1.979759 -5.763544
v -5.731541 -1.979759 3.773468
v -5.731541 -1.979759 -5.763544
v -5.731541 -1.979759 3.773468
v -5.731541 0.633164 4.271051
v -5.731541 0.633164 -6.426989
v -5.731541 0.633164 -5.763544
v -5.731541 0.633164 3.773468
v -5.731541 3.305189 4.271051
v -5.731541 3.305189 -6.426989
v -5.731541 3.305189 -5.763544
v -5.731541 3.305189 3.773468
v -5.731541 5.849320 4.271051
v -5.731541 5.849320 -6.426989
v -5.731541 5.849320 -5.763544
v -5.731541 5.849320 3.773468
v -5.731541 7.907409 4.271051
v -5.731541 7.907409 -6.426989
v -5.731541 7.907409 -5.763544
v -5.731541 7.907409 3.773468
v -5.731541 -4.635228 4.271051
v -5.731541 -4.635228 -6.426989
v -5.731541 -4.635228 -5.763544
v -5.731541 -4.635228 3.773468
v -5.731541 -7.303735 4.271051
v -5.731541 -7.303735 -6.426989
v -5.731541 -7.303735 -5.763544
v -5.731541 -7.303735 3.773468
v -5.731541 -9.994333 4.271051
v -5.731541 -9.994333 -6.426989
v -5.731541 -9.994333 -5.763544
v -5.731541 -9.994333 3.773468
v -5.731541 -12.618602 4.271051
v -5.731541 -12.618602 -6.426989
v -5.731541 -12.618602 -5.763544
v -5.731541 -12.618602 3.773468
v -5.298524 -2.347491 3.773468
v -5.298524 -2.347491 -5.763544
v -5.298524 2.929697 3.773468
v -5.298524 2.929697 -5.763544
v -5.298524 -7.624678 3.773468
v -5.298524 -7.624678 -5.763544
v -5.298524 -4.986084 3.773468
v -5.298524 -4.986084 -5.763544
v -5.298524 5.568290 3.773468
v -5.298524 5.568290 -5.763544
v -5.298524 -10.263272 3.773468
v -5.298524 -10.263272 -5.763544
v -5.298524 0.291102 3.773468
v -5.298524 0.291102 -5.763544
v -5.298524 -1.979759 -5.763544
v -5.298524 -1.979759 3.773468
v -5.298524 0.633164 -5.763544
v -5.298524 0.633164 3.773468
v -5.298524 3.305189 -5.763544
v -5.298524 3.305189 3.773468
v -5.298524 7.907409 -5.763544
v -5.298524 5.849320 -5.763544
v -5.298524 7.907409 3.773468
v -5.298524 5.849320 3.773468
v -5.298524 -4.635228 -5.763544
v -5.298524 -4.635228 3.773468
v -5.298524 -7.303735 -5.763544
v -5.298524 -7.303735 3.773468
v -5.298524 -9.994333 -5.763544
v -5.298524 -9.994333 3.773468
v -5.298524 -12.618602 -5.763544
v -5.298524 -12.618602 3.773468
v -3.676578 8.926576 -3.829574
v -3.676578 10.926576 -3.829574
v 16.285133 8.926576 -3.829574
v 16.285133 10.926576 -3.829574
v -3.676578 8.635716 2.762405
v -3.676578 10.635716 2.762405
v -3.676578 8.635716 0.762405
v -3.676578 10.635716 0.762405
v 16.285133 8.635716 2.762405
v 16.285133 10.635716 2.762405
v 16.285133 8.635716 0.762405
v 16.285133 10.635716 0.762405
v -3.676578 8.926576 1.762402
v -3.676578 10.926576 1.762402
v 16.285133 8.926576 1.762402
v 16.285133 10.926576 1.762402
vt 0.176585 0.195444
vt 0.176548 0.192747
vt 0.176330 0.176683
vt 0.176309 0.173944
vt 0.176182 0.157770
vt 0.176172 0.154913
vt 0.176112 0.139079
vt 0.176112 0.136029
vt 0.176112 0.120379
vt 0.175905 0.117702
vt 0.175945 0.102168
vt 0.175951 0.099829
vt 0.175991 0.084119
vt 0.175998 0.081550
vt 0.176038 0.066068
vt 0.176043 0.064146
vt 0.176080 0.050067
vt 0.176085 0.048018
vt 0.186707 0.037450
vt 0.238081 0.037583
vt 0.321185 0.037583
vt 0.331108 0.047506
vt 0.331108 0.192579
vt 0.175732 0.040316
vt 0.175732 0.185383
vt 0.165809 0.195305
vt 0.082709 0.195305
vt 0.031513 0.195440
vt 0.020927 0.184910
vt 0.020921 0.182868
vt 0.020884 0.168838
vt 0.020879 0.166922
vt 0.020838 0.151494
vt 0.020831 0.148934
vt 0.020790 0.133279
vt 0.020784 0.130947
vt 0.020743 0.115467
vt 0.020743 0.112513
vt 0.020743 0.096864
vt 0.020542 0.093887
vt 0.020601 0.078033
vt 0.020467 0.075208
vt 0.020593 0.058999
vt 0.020513 0.056265
vt 0.020731 0.040155
vt 0.020769 0.037450
vt 0.644692 0.070234
vt 0.642549 0.070087
vt 0.643317 0.058855
vt 0.645711 0.059019
vt 0.812240 0.184361
vt 0.962914 0.191411
vt 0.962620 0.198422
vt 0.811873 0.192104
vt 0.321975 0.330730
vt 0.331633 0.330730
vt 0.331633 0.345785
vt 0.321975 0.345785
vt 0.183148 0.279114
vt 0.183148 0.330730
vt 0.175905 0.330730
vt 0.175905 0.279114
vt 0.182449 0.816150
vt 0.189256 0.816150
vt 0.189256 0.829402
vt 0.182449 0.829402
vt 0.182448 0.966399
vt 0.189256 0.966399
vt 0.183148 0.195617
vt 0.175905 0.195617
vt 0.397848 0.193545
vt 0.602152 0.193545
vt 0.602152 0.295696
vt 0.397848 0.295696
vt 0.602152 0.500000
vt 0.397848 0.500000
vt 0.397848 0.602152
vt 0.602152 0.602152
vt 0.602152 0.704304
vt 0.397848 0.704304
vt 0.602152 0.908607
vt 0.397848 0.908607
vt 0.193545 0.602152
vt 0.193545 0.704304
vt 0.806455 0.602152
vt 0.806455 0.704304
vt 0.944556 0.822431
vt 0.945209 0.891031
vt 0.876609 0.891684
vt 0.875956 0.823084
vt 0.397848 0.295696
vt 0.602152 0.295696
vt 0.602152 0.500000
vt 0.397848 0.500000
vt 0.807356 0.823737
vt 0.808009 0.892337
vt 0.739409 0.892990
vt 0.738756 0.824390
vt 0.670809 0.893643
vt 0.670156 0.825043
vt 0.806703 0.755137
vt 0.738103 0.755790
vt 0.808662 0.960937
vt 0.740062 0.961590
vt 0.946284 0.821981
vt 0.946945 0.891447
vt 0.877479 0.892109
vt 0.876818 0.822643
vt 0.396559 0.293117
vt 0.603441 0.293117
vt 0.603441 0.500000
vt 0.396559 0.500000
vt 0.807352 0.823304
vt 0.808013 0.892770
vt 0.738547 0.893431
vt 0.737886 0.823965
vt 0.669081 0.894093
vt 0.668420 0.824627
vt 0.806690 0.753838
vt 0.737225 0.754500
vt 0.808674 0.962236
vt 0.739209 0.962897
vt 0.945292 0.822239
vt 0.945948 0.891208
vt 0.876980 0.891865
vt 0.876323 0.822896
vt 0.397299 0.294598
vt 0.602701 0.294598
vt 0.602701 0.500000
vt 0.397299 0.500000
vt 0.807354 0.823553
vt 0.808011 0.892522
vt 0.739042 0.893178
vt 0.738385 0.824209
vt 0.670073 0.893835
vt 0.669416 0.824866
vt 0.806697 0.754584
vt 0.737729 0.755240
vt 0.808667 0.961491
vt 0.739698 0.962147
vt 0.944642 0.822408
vt 0.945296 0.891052
vt 0.876653 0.891705
vt 0.875999 0.823062
vt 0.397784 0.295567
vt 0.602216 0.295567
vt 0.602216 0.500000
vt 0.397784 0.500000
vt 0.807356 0.823715
vt 0.808009 0.892359
vt 0.739366 0.893012
vt 0.738712 0.824369
vt 0.670722 0.893666
vt 0.670069 0.825022
vt 0.806702 0.755072
vt 0.738059 0.755726
vt 0.808663 0.961002
vt 0.740019 0.961656
vt 0.944306 0.822496
vt 0.944958 0.890971
vt 0.876483 0.891622
vt 0.875831 0.823148
vt 0.398035 0.296070
vt 0.601965 0.296070
vt 0.601965 0.500000
vt 0.398035 0.500000
vt 0.807357 0.823800
vt 0.808008 0.892274
vt 0.739534 0.892926
vt 0.738882 0.824452
vt 0.671059 0.893578
vt 0.670407 0.825104
vt 0.806705 0.755325
vt 0.738230 0.755977
vt 0.808660 0.960749
vt 0.740186 0.961401
vt 0.749325 0.068427
vt 0.729529 0.068620
vt 0.731113 0.057809
vt 0.749847 0.058722
vt 0.704527 0.069497
vt 0.685368 0.069673
vt 0.685728 0.059632
vt 0.704631 0.059029
vt 0.792416 0.068715
vt 0.772560 0.068695
vt 0.772989 0.058544
vt 0.792953 0.058323
vt 0.770649 0.068637
vt 0.751276 0.068512
vt 0.751888 0.058778
vt 0.771036 0.058513
vt 0.727365 0.067903
vt 0.706475 0.069538
vt 0.706779 0.058990
vt 0.728263 0.057528
vt 0.683305 0.069636
vt 0.664371 0.070105
vt 0.664841 0.059589
vt 0.683468 0.059636
vt 0.813828 0.067975
vt 0.794208 0.068771
vt 0.794624 0.058377
vt 0.813798 0.058659
vt 0.810183 0.184235
vt 0.790057 0.184171
vt 0.792332 0.180661
vt 0.807402 0.181609
vt 0.766201 0.184409
vt 0.746457 0.184775
vt 0.748751 0.181197
vt 0.763456 0.181855
vt 0.724528 0.184876
vt 0.724470 0.184833
vt 0.729495 0.068643
vt 0.811589 0.071556
vt 0.796932 0.071221
vt 0.727363 0.067934
vt 0.721454 0.185565
vt 0.718689 0.182270
vt 0.725005 0.071967
vt 0.768383 0.072061
vt 0.754006 0.071095
vt 0.678841 0.183076
vt 0.660022 0.182886
vt 0.662243 0.179511
vt 0.676160 0.180509
vt 0.331633 0.195617
vt 0.331633 0.279114
vt 0.321975 0.279114
vt 0.321975 0.195617
vt 0.042889 0.966399
vt 0.042888 0.829402
vt 0.051966 0.829402
vt 0.051966 0.966399
vt 0.042888 0.816150
vt 0.051965 0.816150
vt 0.183148 0.345785
vt 0.815358 0.058645
vt 0.962707 0.055287
vt 0.962914 0.064420
vt 0.815588 0.067943
vt 0.641047 0.183427
vt 0.639289 0.183464
vt 0.641035 0.190201
vt 0.639415 0.190210
vt 0.175905 0.345785
vt 0.744336 0.192460
vt 0.724183 0.193687
vt 0.744466 0.184764
vt 0.699538 0.191271
vt 0.680644 0.190485
vt 0.680901 0.183132
vt 0.700380 0.183020
vt 0.788002 0.192035
vt 0.767945 0.192056
vt 0.768120 0.184441
vt 0.788250 0.184125
vt 0.765969 0.192060
vt 0.746491 0.192388
vt 0.721800 0.193776
vt 0.701768 0.191436
vt 0.702372 0.183102
vt 0.721457 0.185645
vt 0.678407 0.190465
vt 0.659614 0.190483
vt 0.809764 0.192071
vt 0.789709 0.192062
vt 0.681074 0.073155
vt 0.667045 0.072588
vt 0.702771 0.182846
vt 0.707206 0.069904
vt 0.657886 0.190438
vt 0.658237 0.182827
vt 0.662556 0.070046
vt 0.663079 0.059531
vt 0.709937 0.072320
vt 0.705295 0.179808
vt 0.785501 0.181566
vt 0.770400 0.180876
vt 0.775297 0.071272
vt 0.790156 0.072174
vt 0.697670 0.180451
vt 0.683150 0.179628
vt 0.688054 0.072197
vt 0.702300 0.072957
vt 0.741742 0.182319
vt 0.726654 0.181354
vt 0.732277 0.071231
vt 0.747015 0.072021
vt 0.655594 0.180396
vt 0.643223 0.179941
vt 0.647400 0.072814
vt 0.660327 0.073575
vt 0.806455 0.500000
vt 0.193545 0.500000
vt 0.397848 0.091393
vt 0.602152 0.091393
vt 0.397476 0.192427
vt 0.602525 0.192427
vt 0.602525 0.294951
vt 0.397476 0.294951
vt 0.602525 0.500000
vt 0.397476 0.500000
vt 0.397476 0.602525
vt 0.602525 0.602525
vt 0.602525 0.705049
vt 0.397476 0.705049
vt 0.602525 0.910098
vt 0.397476 0.910098
vt 0.192427 0.602525
vt 0.192427 0.705049
vt 0.807573 0.602525
vt 0.807573 0.705049
vt 0.807573 0.500000
vt 0.192427 0.500000
vt 0.397476 0.089902
vt 0.602525 0.089902
vn -0.0000 0.0000 -1.0000
vn -0.0000 0.0000 1.0000
vn -1.0000 0.0000 0.0000
vn 0.0000 -1.0000 0.0000
vn -0.6854 0.7282 0.0000
vn 0.0000 1.0000 0.0000
vn 0.6854 0.7282 0.0000
vn 1.0000 0.0000 0.0000
vn 0.0000 -0.9602 -0.2793
vn 0.0000 0.9602 0.2793
vn 0.0000 0.9602 -0.2793
vn 0.0000 -0.9602 0.2793
usemtl None
s off
f 2/1/1 144/2/1 76/3/1 140/4/1 68/5/1 136/6/1 70/7/1 132/8/1 64/9/1 110/10/1 72/11/1 116/12/1 66/13/1 120/14/1 74/15/1 124/16/1 128/17/1 7/18/1 8/19/1 14/20/1 11/21/1 12/22/1 4/23/1
f 3/24/2 9/25/2 10/26/2 13/27/2 5/28/2 6/29/2 127/30/2 123/31/2 73/32/2 119/33/2 65/34/2 115/35/2 71/36/2 109/37/2 63/38/2 131/39/2 69/40/2 135/41/2 67/42/2 139/43/2 75/44/2 143/45/2 1/46/2
f 129/47/3 80/48/3 7/49/3 128/50/3
f 91/51/4 95/52/4 3/53/4 1/54/4
f 79/55/5 8/56/5 7/57/5 80/58/5
f 94/59/6 96/60/6 5/61/6 13/62/6
f 93/63/7 10/64/7 9/65/7 97/66/7
f 95/67/8 97/66/8 9/65/8 3/68/8
f 93/69/6 94/59/6 13/62/6 10/70/6
f 179/71/3 180/72/3 18/73/3 17/74/3
f 17/74/1 18/73/1 22/75/1 21/76/1
f 181/77/8 182/78/8 20/79/8 19/80/8
f 19/80/2 20/79/2 16/81/2 15/82/2
f 179/83/9 181/77/9 19/80/9 15/84/9
f 182/78/10 180/85/10 16/86/10 20/79/10
f 23/87/3 24/88/3 26/89/3 25/90/3
f 25/91/1 26/92/1 30/93/1 29/94/1
f 29/95/8 30/96/8 28/97/8 27/98/8
f 27/98/2 28/97/2 24/99/2 23/100/2
f 25/101/4 29/95/4 27/98/4 23/102/4
f 30/96/6 26/103/6 24/104/6 28/97/6
f 31/105/3 32/106/3 34/107/3 33/108/3
f 33/109/1 34/110/1 38/111/1 37/112/1
f 37/113/8 38/114/8 36/115/8 35/116/8
f 35/116/2 36/115/2 32/117/2 31/118/2
f 33/119/4 37/113/4 35/116/4 31/120/4
f 38/114/6 34/121/6 32/122/6 36/115/6
f 39/123/3 40/124/3 42/125/3 41/126/3
f 41/127/1 42/128/1 46/129/1 45/130/1
f 45/131/8 46/132/8 44/133/8 43/134/8
f 43/134/2 44/133/2 40/135/2 39/136/2
f 41/137/4 45/131/4 43/134/4 39/138/4
f 46/132/6 42/139/6 40/140/6 44/133/6
f 47/141/3 48/142/3 50/143/3 49/144/3
f 49/145/1 50/146/1 54/147/1 53/148/1
f 53/149/8 54/150/8 52/151/8 51/152/8
f 51/152/2 52/151/2 48/153/2 47/154/2
f 49/155/4 53/149/4 51/152/4 47/156/4
f 54/150/6 50/157/6 48/158/6 52/151/6
f 55/159/3 56/160/3 58/161/3 57/162/3
f 57/163/1 58/164/1 62/165/1 61/166/1
f 61/167/8 62/168/8 60/169/8 59/170/8
f 59/170/2 60/169/2 56/171/2 55/172/2
f 57/173/4 61/167/4 59/170/4 55/174/4
f 62/168/6 58/175/6 56/176/6 60/169/6
f 133/177/3 84/178/3 64/179/3 132/180/3
f 117/181/3 85/182/3 66/183/3 116/184/3
f 141/185/3 86/186/3 68/187/3 140/188/3
f 137/189/3 87/190/3 70/191/3 136/192/3
f 111/193/3 88/194/3 72/195/3 110/196/3
f 121/197/3 89/198/3 74/199/3 120/200/3
f 145/201/3 90/202/3 76/203/3 144/204/3
f 146/205/1 104/206/1 157/207/1 178/208/1
f 138/209/1 101/210/1 153/211/1 174/212/1
f 84/178/2 98/213/2 105/214/2 106/215/2
f 90/202/2 145/201/2 177/216/2 158/217/2
f 113/218/6 114/219/6 162/220/6 161/221/6
f 87/190/2 137/189/2 173/222/2 154/223/2
f 122/224/1 103/225/1 155/226/1 166/227/1
f 11/228/6 14/229/6 83/230/6 81/231/6
f 4/232/8 12/233/8 82/234/8 78/235/8
f 11/236/7 81/237/7 82/234/7 12/233/7
f 14/229/6 8/56/6 79/55/6 83/230/6
f 96/60/5 79/55/5 80/58/5 92/238/5
f 2/239/4 4/240/4 78/241/4 77/242/4
f 130/243/3 92/244/3 80/48/3 129/47/3
f 127/245/3 6/246/3 92/244/3 130/243/3
f 5/61/5 96/60/5 92/238/5 6/247/5
f 131/248/3 63/249/3 98/213/3 134/250/3
f 115/251/3 65/252/3 99/253/3 118/254/3
f 139/255/3 67/256/3 100/257/3 142/258/3
f 135/259/3 69/260/3 101/210/3 138/209/3
f 109/261/3 71/262/3 102/263/3 112/264/3
f 119/265/3 73/266/3 103/225/3 122/224/3
f 143/267/3 75/268/3 104/206/3 146/205/3
f 81/231/6 83/230/6 94/59/6 93/69/6
f 78/235/8 82/234/8 97/66/8 95/67/8
f 81/237/7 93/63/7 97/66/7 82/234/7
f 83/230/6 79/55/6 96/60/6 94/59/6
f 77/242/4 78/241/4 95/52/4 91/51/4
f 89/198/2 121/197/2 165/269/2 156/270/2
f 111/193/2 84/178/2 106/215/2 113/218/2
f 112/264/2 102/263/2 107/271/2 114/219/2
f 102/263/2 88/194/2 108/272/2 107/271/2
f 98/213/2 112/264/2 114/219/2 105/214/2
f 88/194/2 111/193/2 113/218/2 108/272/2
f 105/214/3 114/219/3 113/218/3 106/215/3
f 63/249/3 109/261/3 112/264/3 98/213/3
f 84/178/3 111/193/3 110/196/3 64/179/3
f 71/262/3 115/251/3 118/254/3 102/263/3
f 102/263/3 118/254/3 117/181/3 88/194/3
f 88/194/3 117/181/3 116/184/3 72/195/3
f 65/252/3 119/265/3 122/224/3 99/253/3
f 99/253/3 122/224/3 121/197/3 85/182/3
f 85/182/3 121/197/3 120/200/3 66/183/3
f 73/266/3 123/273/3 126/274/3 103/225/3
f 103/225/3 126/274/3 125/275/3 89/198/3
f 89/198/3 125/275/3 124/276/3 74/199/3
f 123/273/3 127/245/3 130/243/3 126/274/3
f 107/271/4 108/272/4 160/277/4 159/278/4
f 125/275/3 129/47/3 128/50/3 124/276/3
f 69/260/3 131/248/3 134/250/3 101/210/3
f 101/210/3 134/250/3 133/177/3 87/190/3
f 87/190/3 133/177/3 132/180/3 70/191/3
f 67/256/3 135/259/3 138/209/3 100/257/3
f 100/257/3 138/209/3 137/189/3 86/186/3
f 86/186/3 137/189/3 136/192/3 68/187/3
f 75/268/3 139/255/3 142/258/3 104/206/3
f 104/206/3 142/258/3 141/185/3 90/202/3
f 90/202/3 141/185/3 140/188/3 76/203/3
f 1/54/3 143/267/3 146/205/3 91/51/3
f 91/51/3 146/205/3 145/201/3 77/242/3
f 77/242/3 145/201/3 144/204/3 2/239/3
f 178/208/3 157/207/3 158/217/3 177/216/3
f 166/227/3 155/226/3 156/270/3 165/269/3
f 174/212/3 153/211/3 154/223/3 173/222/3
f 176/279/3 151/280/3 152/281/3 175/282/3
f 164/283/3 149/284/3 150/285/3 163/286/3
f 172/287/3 147/288/3 148/289/3 171/290/3
f 160/277/3 161/221/3 162/220/3 159/278/3
f 170/291/3 169/292/3 167/293/3 168/294/3
f 121/197/6 122/224/6 166/227/6 165/269/6
f 98/213/4 84/178/4 148/289/4 147/288/4
f 130/243/4 129/47/4 167/293/4 169/292/4
f 137/189/6 138/209/6 174/212/6 173/222/6
f 99/253/4 85/182/4 150/285/4 149/284/4
f 145/201/6 146/205/6 178/208/6 177/216/6
f 100/257/4 86/186/4 152/281/4 151/280/4
f 85/182/2 117/181/2 163/286/2 150/285/2
f 101/210/4 87/190/4 154/223/4 153/211/4
f 129/47/2 125/275/2 168/294/2 167/293/2
f 118/254/1 99/253/1 149/284/1 164/283/1
f 84/178/2 133/177/2 171/290/2 148/289/2
f 126/274/1 130/243/1 169/292/1 170/291/1
f 86/186/2 141/185/2 175/282/2 152/281/2
f 103/225/4 89/198/4 156/270/4 155/226/4
f 134/250/1 98/213/1 147/288/1 172/287/1
f 142/258/1 100/257/1 151/280/1 176/279/1
f 104/206/4 90/202/4 158/217/4 157/207/4
f 117/181/6 118/254/6 164/283/6 163/286/6
f 125/275/6 126/274/6 170/291/6 168/294/6
f 133/177/6 134/250/6 172/287/6 171/290/6
f 108/272/2 113/218/2 161/221/2 160/277/2
f 141/185/6 142/258/6 176/279/6 175/282/6
f 114/219/1 107/271/1 159/278/1 162/220/1
f 22/75/11 18/295/11 180/85/11 182/78/11
f 17/296/12 21/76/12 181/77/12 179/83/12
f 21/76/8 22/75/8 182/78/8 181/77/8
f 15/297/3 16/298/3 180/72/3 179/71/3
f 191/299/3 192/300/3 186/301/3 185/302/3
f 185/302/1 186/301/1 190/303/1 189/304/1
f 193/305/8 194/306/8 188/307/8 187/308/8
f 187/308/2 188/307/2 184/309/2 183/310/2
f 191/311/9 193/305/9 187/308/9 183/312/9
f 194/306/10 192/313/10 184/314/10 188/307/10
f 190/303/11 186/315/11 192/313/11 194/306/11
f 185/316/12 189/304/12 193/305/12 191/311/12
f 189/304/8 190/303/8 194/306/8 193/305/8
f 183/317/3 184/318/3 192/300/3 191/299/3
