# Blender v2.90.0 OBJ File: 'Scientist.blend'
# www.blender.org
mtllib WallFront.mtl
o WallBot_Cube.026
v -90.679832 -5.172382 90.203918
v -84.769630 23.078220 90.203918
v -90.679832 -5.172382 76.648041
v -84.769630 23.078220 76.648041
v -63.365501 -5.172382 90.203918
v -69.275703 23.078220 90.203918
v -63.365501 -5.172382 76.648041
v -69.275703 23.078220 76.648041
v -65.125961 -3.411921 76.648041
v -65.125961 -3.411920 90.203918
v -70.274315 21.197071 76.648041
v -70.274315 21.197071 90.203918
v -83.771019 21.197071 76.648041
v -83.771019 21.197071 90.203918
v -88.919373 -3.411921 76.648041
v -88.919373 -3.411920 90.203918
v 150.000000 0.052795 78.999947
v 150.000000 24.052795 78.999947
v 150.000000 0.052795 80.999947
v 150.000000 24.052795 80.999947
v -150.000000 0.052795 79.000046
v -150.000000 24.052795 79.000046
v -150.000000 0.052795 81.000046
v -150.000000 24.052795 81.000046
v -69.275703 23.078220 81.000015
v -69.275703 23.078220 79.000015
v -64.458633 0.052795 81.000015
v -64.458633 0.052795 79.000015
v -84.769646 23.078220 81.000023
v -84.769630 23.078220 79.000023
v -89.586678 0.052795 81.000023
v -89.586693 0.052795 79.000023
vt 0.375000 0.000000
vt 0.625000 0.000000
vt 0.625000 0.250000
vt 0.375000 0.250000
vt 0.390579 0.263840
vt 0.390579 0.486160
vt 0.375000 0.500000
vt 0.625000 0.500000
vt 0.625000 0.750000
vt 0.375000 0.750000
vt 0.390579 0.763840
vt 0.390579 0.986160
vt 0.375000 1.000000
vt 0.125000 0.500000
vt 0.125000 0.750000
vt 0.875000 0.500000
vt 0.875000 0.750000
vt 0.375000 0.558114
vt 0.375000 0.691886
vt 0.625000 0.691886
vt 0.625000 0.558114
vt 0.375000 0.058114
vt 0.375000 0.191886
vt 0.625000 0.191886
vt 0.625000 0.058114
vt 0.608353 0.480356
vt 0.608353 0.269644
vt 0.608353 0.980356
vt 0.608353 0.769644
vt 0.625000 1.000000
vt 0.125000 0.558114
vt 0.125000 0.691886
vt 0.875000 0.691886
vt 0.875000 0.558114
vt 0.375000 0.000000
vt 0.625000 0.000000
vt 0.625000 0.250000
vt 0.375000 0.250000
vt 0.625000 0.500000
vt 0.375000 0.500000
vt 0.375000 0.449656
vt 0.614848 0.445641
vt 0.614848 0.432730
vt 0.375000 0.428716
vt 0.625000 0.750000
vt 0.375000 0.750000
vt 0.625000 1.000000
vt 0.375000 1.000000
vt 0.375000 0.821284
vt 0.614848 0.817270
vt 0.614848 0.804359
vt 0.375000 0.800344
vt 0.125000 0.500000
vt 0.303716 0.500000
vt 0.303716 0.750000
vt 0.125000 0.750000
vt 0.875000 0.500000
vt 0.875000 0.750000
vt 0.625000 0.580260
vt 0.625000 0.543376
vt 0.421240 0.543376
vt 0.421240 0.580260
vt 0.625000 0.206624
vt 0.625000 0.169740
vt 0.421240 0.169740
vt 0.421239 0.206624
vt 0.875000 0.580260
vt 0.875000 0.543376
vt 0.324656 0.750000
vt 0.324656 0.500000
vn -0.9788 0.2048 0.0000
vn 0.0000 0.0000 -1.0000
vn 0.9788 0.2048 0.0000
vn 0.0000 0.0000 1.0000
vn 0.0000 -1.0000 0.0000
vn 0.0000 1.0000 0.0000
vn -0.9788 -0.2048 0.0000
vn 0.9788 -0.2048 0.0000
vn 1.0000 0.0000 0.0000
vn -1.0000 0.0000 0.0000
usemtl None
s off
f 1/1/1 2/2/1 4/3/1 3/4/1
f 3/4/2 15/5/2 9/6/2 7/7/2
f 7/7/3 8/8/3 6/9/3 5/10/3
f 5/10/4 10/11/4 16/12/4 1/13/4
f 3/14/5 7/7/5 5/10/5 1/15/5
f 8/8/6 4/16/6 2/17/6 6/9/6
f 9/18/7 10/19/7 12/20/7 11/21/7
f 16/22/8 15/23/8 13/24/8 14/25/8
f 7/7/2 9/6/2 11/26/2 13/27/2 15/5/2 3/4/2 4/3/2 8/8/2
f 1/13/4 16/12/4 14/28/4 12/29/4 10/11/4 5/10/4 6/9/4 2/30/4
f 15/31/6 16/32/6 10/19/6 9/18/6
f 11/21/5 12/20/5 14/33/5 13/34/5
f 17/35/9 18/36/9 20/37/9 19/38/9
f 19/38/4 20/37/4 24/39/4 23/40/4 31/41/4 29/42/4 25/43/4 27/44/4
f 23/40/10 24/39/10 22/45/10 21/46/10
f 21/46/2 22/45/2 18/47/2 17/48/2 28/49/2 26/50/2 30/51/2 32/52/2
f 19/53/5 27/54/5 28/55/5 17/56/5
f 24/39/6 20/57/6 18/58/6 22/45/6
f 25/59/7 26/60/7 28/61/7 27/62/7
f 30/63/8 29/64/8 31/65/8 32/66/8
f 26/60/5 25/59/5 29/67/5 30/68/5
f 32/69/5 31/70/5 23/40/5 21/46/5
